<svg id="visual" viewBox="0 0 960 450" width="960" height="450" xmlns="http://www.w3.org/2000/svg" xmlns:xlink="http://www.w3.org/1999/xlink" version="1.1"><rect x="0" y="0" width="960" height="450" fill="#F6F8D5"></rect><defs><linearGradient id="grad1_0" x1="53.1%" y1="0%" x2="100%" y2="100%"><stop offset="7.333333333333333%" stop-color="#f6f8d5" stop-opacity="1"></stop><stop offset="92.66666666666667%" stop-color="#f6f8d5" stop-opacity="1"></stop></linearGradient></defs><defs><linearGradient id="grad2_0" x1="0%" y1="0%" x2="46.9%" y2="100%"><stop offset="7.333333333333333%" stop-color="#f6f8d5" stop-opacity="1"></stop><stop offset="92.66666666666667%" stop-color="#f6f8d5" stop-opacity="1"></stop></linearGradient></defs><g transform="translate(960, 0)"><path d="M0 202.5C-32.3 192.2 -64.6 181.9 -96 166.3C-127.4 150.7 -157.8 129.8 -175.4 101.3C-193 72.7 -197.7 36.3 -202.5 0L0 0Z" fill="#205781"></path></g><g transform="translate(0, 450)"><path d="M0 -202.5C36 -197.5 72 -192.6 101.2 -175.4C130.5 -158.2 153.1 -128.8 168.9 -97.5C184.6 -66.2 193.6 -33.1 202.5 0L0 0Z" fill="#205781"></path></g></svg>